<?xml version="1.0" encoding="UTF-8" standalone="no"?>
<!-- Created with Inkscape (http://www.inkscape.org/) -->

<svg
   xmlns:dc="http://purl.org/dc/elements/1.1/"
   xmlns:cc="http://creativecommons.org/ns#"
   xmlns:rdf="http://www.w3.org/1999/02/22-rdf-syntax-ns#"
   xmlns:svg="http://www.w3.org/2000/svg"
   xmlns="http://www.w3.org/2000/svg"
   xmlns:sodipodi="http://sodipodi.sourceforge.net/DTD/sodipodi-0.dtd"
   xmlns:inkscape="http://www.inkscape.org/namespaces/inkscape"
   id="svg3341"
   version="1.1"
   inkscape:version="0.91 r13725"
   width="5120"
   height="409"
   viewBox="0 0 5120 409"
   sodipodi:docname="Level01hit.svg">
  <metadata
     id="metadata3347">
    <rdf:RDF>
      <cc:Work
         rdf:about="">
        <dc:format>image/svg+xml</dc:format>
        <dc:type
           rdf:resource="http://purl.org/dc/dcmitype/StillImage" />
        <dc:title />
      </cc:Work>
    </rdf:RDF>
  </metadata>
  <defs
     id="defs3345" />
  <sodipodi:namedview
     pagecolor="#ffffff"
     bordercolor="#666666"
     borderopacity="1"
     objecttolerance="10"
     gridtolerance="10"
     guidetolerance="10"
     inkscape:pageopacity="0"
     inkscape:pageshadow="2"
     inkscape:window-width="1920"
     inkscape:window-height="1017"
     id="namedview3343"
     showgrid="false"
     inkscape:zoom="1.3141666"
     inkscape:cx="300.76794"
     inkscape:cy="5.7864081"
     inkscape:window-x="1912"
     inkscape:window-y="-8"
     inkscape:window-maximized="1"
     inkscape:current-layer="svg3341" />
  <path
     style="fill:#000000"
     d="m 0,392.5 0,-15.5 936,0 936,0 0,-8 0,-8 40,0 40,0 0,-8 0,-8 32,0 32,0 0,-8 0,-8 24,0 24,0 0,-8 0,-8 112,0 112,0 0,32 0,32 600,0 600,0 0,-16 0,-16 80,0 80,0 0,31.5 0,31.5 -1824,0 -1824,0 z m 3680,0 0,-15.5 720,0 720,0 0,15.5 0,15.5 -720,0 -720,0 z"
     id="path3351"
     inkscape:connector-curvature="0"
     sodipodi:nodetypes="cccccccccccccccccccccccccccccccccccccccccc" />
</svg>
